<svg width="20" height="20" viewBox="0 0 20 20" fill="none" xmlns="http://www.w3.org/2000/svg">
<path d="M9.35648 13.0448L11.5232 10.8781L13.6898 13.0448L14.5679 12.1667L12.4013 10L14.5679 7.83333L13.6898 6.95521L11.5232 9.12187L9.35648 6.95521L8.47815 7.83333L10.6448 10L8.47815 12.1667L9.35648 13.0448ZM7.57273 16.25C7.33426 16.25 7.10829 16.1974 6.89482 16.0921C6.68149 15.9868 6.50579 15.8413 6.36773 15.6554L2.08398 10L6.36773 4.34458C6.50579 4.15875 6.68149 4.01319 6.89482 3.90792C7.10829 3.80264 7.33426 3.75 7.57273 3.75H16.4109C16.8252 3.75 17.1798 3.8975 17.4748 4.1925C17.7698 4.4875 17.9173 4.84215 17.9173 5.25646V14.7435C17.9173 15.1578 17.7698 15.5125 17.4748 15.8075C17.1798 16.1025 16.8252 16.25 16.4109 16.25H7.57273ZM3.64648 10L7.3644 14.9038C7.39107 14.9358 7.42176 14.9599 7.45649 14.976C7.49121 14.992 7.52996 15 7.57273 15H16.4109C16.4857 15 16.5472 14.976 16.5952 14.9279C16.6433 14.8799 16.6673 14.8184 16.6673 14.7435V5.25646C16.6673 5.1816 16.6433 5.12014 16.5952 5.07208C16.5472 5.02403 16.4857 5 16.4109 5H7.57273C7.52996 5 7.49121 5.00799 7.45649 5.02396C7.42176 5.04007 7.39107 5.06417 7.3644 5.09625L3.64648 10Z" fill="#5F6368"/>
</svg>
