<svg fill="none" height="13" viewBox="0 0 10 13" width="10" xmlns="http://www.w3.org/2000/svg">
    <path
        d="M5.568 12.192C4.10667 12.192 2.96 11.7013 2.128 10.72C1.296 9.728 0.88 8.29333 0.88 6.416C0.88 5.47733 0.986667 4.65067 1.2 3.936C1.41333 3.22133 1.72267 2.61867 2.128 2.128C2.53333 1.63733 3.024 1.26933 3.6 1.024C4.18667 0.767999 4.84267 0.639999 5.568 0.639999C6.53867 0.639999 7.34933 0.853333 8 1.28C8.66133 1.70667 9.17867 2.336 9.552 3.168L8.032 4C7.84 3.46667 7.54133 3.04533 7.136 2.736C6.74133 2.416 6.21867 2.256 5.568 2.256C4.704 2.256 4.02667 2.54933 3.536 3.136C3.04533 3.72267 2.8 4.53333 2.8 5.568V7.264C2.8 8.29867 3.04533 9.10933 3.536 9.696C4.02667 10.2827 4.704 10.576 5.568 10.576C6.24 10.576 6.784 10.4053 7.2 10.064C7.62667 9.712 7.94133 9.264 8.144 8.72L9.6 9.6C9.22667 10.4107 8.704 11.0453 8.032 11.504C7.36 11.9627 6.53867 12.192 5.568 12.192Z"
        fill="#101828" />
</svg>
