<svg width="20" height="20" viewBox="0 0 20 20" fill="none" xmlns="http://www.w3.org/2000/svg">
<path d="M11.0391 16.2734C9.9974 16.2734 9.09375 16.0339 8.32812 15.5547C7.56771 15.0755 6.98177 14.3958 6.57031 13.5156C6.15885 12.6354 5.95312 11.5885 5.95312 10.375V10.3594C5.95312 9.14062 6.15885 8.09115 6.57031 7.21094C6.98177 6.33073 7.56771 5.65104 8.32812 5.17188C9.08854 4.69271 9.99219 4.45312 11.0391 4.45312C11.8672 4.45312 12.6146 4.61719 13.2812 4.94531C13.9531 5.26823 14.5026 5.71615 14.9297 6.28906C15.362 6.86198 15.625 7.52083 15.7188 8.26562V8.3125H13.9766L13.9688 8.28125C13.8646 7.81771 13.6745 7.41667 13.3984 7.07812C13.1224 6.73958 12.7839 6.47656 12.3828 6.28906C11.9818 6.10156 11.5339 6.00781 11.0391 6.00781C10.3672 6.00781 9.78385 6.1849 9.28906 6.53906C8.79948 6.89323 8.41927 7.39583 8.14844 8.04688C7.88281 8.69271 7.75 9.46354 7.75 10.3594V10.375C7.75 11.2604 7.88281 12.0286 8.14844 12.6797C8.41927 13.3307 8.79948 13.8333 9.28906 14.1875C9.78385 14.5417 10.3698 14.7188 11.0469 14.7188C11.5417 14.7188 11.9896 14.6354 12.3906 14.4688C12.7969 14.3021 13.1354 14.0651 13.4062 13.7578C13.6771 13.4453 13.862 13.0781 13.9609 12.6562L13.9766 12.625H15.7266L15.7188 12.6641C15.6094 13.388 15.3438 14.0208 14.9219 14.5625C14.5 15.1042 13.9583 15.526 13.2969 15.8281C12.6354 16.125 11.8828 16.2734 11.0391 16.2734Z" fill="#101828"/>
</svg>
