<svg fill="none" height="24" viewBox="0 0 24 24" width="24" xmlns="http://www.w3.org/2000/svg">
    <path
        d="M7.28711 8.40057H16.8871M7.28711 13.2006H8.65854M11.4014 13.2006H12.7728M15.5157 13.2006H16.8871M7.28711 16.8006H8.65854M11.4014 16.8006H12.7728"
        stroke="#5F6368" stroke-linecap="square" stroke-width="1.5" />
    <path
        d="M18.3369 2.44287C19.4459 2.44287 20.3346 3.34784 20.335 4.45068V14.563C19.8764 14.3324 19.3702 14.1831 18.835 14.1333V4.45068C18.8346 4.16443 18.6056 3.94287 18.3369 3.94287H5.86133C5.59269 3.94299 5.3636 4.16451 5.36328 4.45068V19.5483C5.36343 19.8347 5.59259 20.056 5.86133 20.0562H14.5752C14.8335 20.6373 15.2189 21.1485 15.6963 21.5562H5.86133C4.75237 21.556 3.86343 20.6513 3.86328 19.5483V4.45068C3.8636 3.34792 4.75247 2.44299 5.86133 2.44287H18.3369Z"
        fill="#5F6368" />
    <path d="M18.6867 20.4006V16.8006M16.8867 18.6006H20.4867" stroke="#5F6368" stroke-linecap="square"
        stroke-linejoin="round" stroke-width="1.5" />
</svg>
