<svg fill="none" height="17" viewBox="0 0 16 17" width="16" xmlns="http://www.w3.org/2000/svg">
    <path
        d="M4.66602 10.6186C4.46199 10.6186 4.2881 10.5467 4.14435 10.4031C4.00074 10.2594 3.92893 10.0855 3.92893 9.88147C3.92893 9.67744 4.00074 9.50355 4.14435 9.3598C4.2881 9.21605 4.46199 9.14418 4.66602 9.14418C4.87004 9.14418 5.04393 9.21605 5.18768 9.3598C5.33129 9.50355 5.4031 9.67744 5.4031 9.88147C5.4031 10.0855 5.33129 10.2594 5.18768 10.4031C5.04393 10.5467 4.87004 10.6186 4.66602 10.6186ZM7.99935 10.6186C7.79532 10.6186 7.62143 10.5467 7.47768 10.4031C7.33407 10.2594 7.26227 10.0855 7.26227 9.88147C7.26227 9.67744 7.33407 9.50355 7.47768 9.3598C7.62143 9.21605 7.79532 9.14418 7.99935 9.14418C8.20338 9.14418 8.37727 9.21605 8.52102 9.3598C8.66463 9.50355 8.73643 9.67744 8.73643 9.88147C8.73643 10.0855 8.66463 10.2594 8.52102 10.4031C8.37727 10.5467 8.20338 10.6186 7.99935 10.6186ZM11.3327 10.6186C11.1287 10.6186 10.9548 10.5467 10.811 10.4031C10.6674 10.2594 10.5956 10.0855 10.5956 9.88147C10.5956 9.67744 10.6674 9.50355 10.811 9.3598C10.9548 9.21605 11.1287 9.14418 11.3327 9.14418C11.5367 9.14418 11.7106 9.21605 11.8543 9.3598C11.998 9.50355 12.0698 9.67744 12.0698 9.88147C12.0698 10.0855 11.998 10.2594 11.8543 10.4031C11.7106 10.5467 11.5367 10.6186 11.3327 10.6186ZM2.42247 16.9167C2.0015 16.9167 1.64518 16.7708 1.35352 16.4792C1.06185 16.1875 0.916016 15.8312 0.916016 15.4102V4.25647C0.916016 3.8355 1.06185 3.47918 1.35352 3.18751C1.64518 2.89585 2.0015 2.75001 2.42247 2.75001H3.57622V0.987305H4.85831V2.75001H11.1725V0.987305H12.4225V2.75001H13.5762C13.9972 2.75001 14.3535 2.89585 14.6452 3.18751C14.9368 3.47918 15.0827 3.8355 15.0827 4.25647V15.4102C15.0827 15.8312 14.9368 16.1875 14.6452 16.4792C14.3535 16.7708 13.9972 16.9167 13.5762 16.9167H2.42247ZM2.42247 15.6667H13.5762C13.6404 15.6667 13.6991 15.6399 13.7525 15.5865C13.8059 15.5331 13.8327 15.4744 13.8327 15.4102V7.5898H2.16602V15.4102C2.16602 15.4744 2.19275 15.5331 2.24622 15.5865C2.29956 15.6399 2.35831 15.6667 2.42247 15.6667ZM2.16602 6.3398H13.8327V4.25647C13.8327 4.1923 13.8059 4.13355 13.7525 4.08022C13.6991 4.02675 13.6404 4.00001 13.5762 4.00001H2.42247C2.35831 4.00001 2.29956 4.02675 2.24622 4.08022C2.19275 4.13355 2.16602 4.1923 2.16602 4.25647V6.3398Z"
        fill="#5F6368" />
</svg>
