<svg width="120" height="120" viewBox="0 0 120 120" fill="none" xmlns="http://www.w3.org/2000/svg">
<path d="M57.8389 105.2C83.1914 105.2 103.744 84.8736 103.744 59.7999C103.744 34.7262 83.1914 14.3999 57.8389 14.3999C32.4864 14.3999 11.9341 34.7262 11.9341 59.7999C11.9341 84.8736 32.4864 105.2 57.8389 105.2Z" fill="#C2FFFF"/>
<path fill-rule="evenodd" clip-rule="evenodd" d="M97.4452 88.7407C97.8635 88.5933 98.3037 88.3973 98.6432 88.1137C99.0464 87.7767 99.2103 87.3428 99.3204 86.886C99.4618 86.2992 99.5183 85.6741 99.6897 85.0863C99.7532 84.868 99.8753 84.7855 99.9277 84.7489C100.06 84.6564 100.194 84.6317 100.32 84.641C100.469 84.6517 100.674 84.7076 100.809 84.9551C100.829 84.9905 100.854 85.0445 100.87 85.1184C100.883 85.1726 100.891 85.3422 100.904 85.4121C100.936 85.5842 100.963 85.7564 100.989 85.9295C101.074 86.5056 101.122 86.9949 101.39 87.5242C101.754 88.2428 102.119 88.6824 102.613 88.8772C103.091 89.0655 103.662 89.0301 104.393 88.8824C104.462 88.8657 104.531 88.8515 104.599 88.8398C104.921 88.7842 105.228 88.9932 105.292 89.3104C105.355 89.6273 105.15 89.9362 104.831 90.0059C104.765 90.0204 104.699 90.0342 104.634 90.0468C103.647 90.2883 102.505 91.1505 101.841 91.9054C101.637 92.1382 101.337 92.789 101.032 93.2042C100.806 93.5104 100.553 93.7123 100.34 93.7836C100.197 93.8317 100.077 93.8243 99.978 93.8C99.8337 93.7648 99.714 93.6876 99.6222 93.5646C99.5721 93.4973 99.5257 93.4072 99.5036 93.2921C99.493 93.2367 99.4918 93.096 99.4921 93.0323C99.4298 92.8204 99.3536 92.6135 99.2981 92.3998C99.1656 91.8898 98.9057 91.5669 98.597 91.1403C98.3083 90.7411 97.9981 90.4902 97.5435 90.29C97.4844 90.2757 97.0071 90.1602 96.8386 90.0938C96.5924 89.9966 96.4751 89.8337 96.4325 89.746C96.3602 89.5971 96.3527 89.4671 96.3671 89.3587C96.3885 89.1986 96.4611 89.0617 96.59 88.9511C96.6698 88.8824 96.7891 88.8156 96.9487 88.783C97.072 88.7576 97.3992 88.7428 97.4452 88.7407ZM100.245 87.9094C100.267 87.9582 100.291 88.0071 100.316 88.0566C100.848 89.109 101.444 89.6965 102.168 89.9816L102.192 89.9909C101.708 90.3466 101.269 90.7442 100.934 91.1253C100.796 91.2822 100.614 91.6082 100.416 91.9425C100.237 91.3659 99.9436 90.9584 99.5748 90.4484C99.293 90.0591 98.9978 89.7662 98.635 89.5275C98.9165 89.3846 99.1851 89.2172 99.419 89.0217C99.8085 88.6962 100.066 88.3191 100.245 87.9094Z" fill="#009E69"/>
<ellipse cx="5.77418" cy="50.9529" rx="2.17408" ry="2.15018" fill="#009E69"/>
<path fill-rule="evenodd" clip-rule="evenodd" d="M24.5735 31.685C24.0094 29.7614 22.8986 28.2566 21.1959 27.1699C20.9952 27.0416 20.9364 26.7752 21.0661 26.5753C21.1942 26.3755 21.4624 26.3173 21.6631 26.4455C23.5474 27.6488 24.7794 29.314 25.4041 31.4438C25.4716 31.6717 25.3383 31.911 25.1099 31.9774C24.8798 32.044 24.6393 31.9129 24.5735 31.685Z" fill="#1D2939"/>
<path fill-rule="evenodd" clip-rule="evenodd" d="M44.0137 29.0746C44.3494 29.4676 44.6505 29.891 44.9066 30.3418C45.0208 30.5425 45.2215 30.9691 45.2526 31.3349C45.2873 31.7246 45.154 32.0534 44.8114 32.2265C44.3564 32.4562 43.993 32.4322 43.7127 32.2933C43.4427 32.1599 43.2316 31.8977 43.0984 31.5463C42.844 30.8744 42.8821 29.8476 43.0153 29.2617C42.6572 28.894 42.2644 28.5606 41.8439 28.2642C38.712 26.0566 34.118 26.8706 30.5829 30.1714C29.3457 31.3271 28.7505 33.7542 28.4408 36.3729C27.958 40.4502 28.2331 45.0042 28.2712 46.3384C28.2799 46.6679 28.2487 46.8634 28.2314 46.9025C28.1501 47.0946 28.0065 47.1445 27.9061 47.1634C27.7608 47.1893 27.6448 47.1617 27.5514 47.1135C27.4251 47.0474 27.3212 46.9311 27.2728 46.7515C27.2468 46.6524 27.2399 46.5143 27.2434 46.3671C27.2469 46.2651 27.2676 46.1535 27.2469 46.0804C27.1119 45.6118 26.9492 45.1543 26.7901 44.6935C26.2588 43.1445 25.5719 41.6929 24.8088 40.243C22.3846 35.636 20.04 30.7682 16.0655 27.2582C15.8873 27.1007 15.8699 26.8284 16.0291 26.6508C16.1866 26.4731 16.46 26.4569 16.6399 26.6146C20.6941 30.194 23.1027 35.1456 25.5754 39.8438C26.2242 41.0771 26.8195 42.3122 27.3143 43.6041C27.2642 41.3188 27.2832 38.1555 27.7037 35.3566C28.0774 32.8674 28.7886 30.6675 29.9912 29.544C33.8636 25.928 38.9145 25.1436 42.344 27.562C42.7108 27.8209 43.0603 28.1056 43.3856 28.4145C45.18 25.1912 49.0213 23.8994 52.4162 25.441C52.6342 25.5396 52.7294 25.7951 52.6308 26.0111C52.5304 26.2271 52.2743 26.3225 52.0563 26.2239C48.9971 24.8348 45.5278 26.0745 44.0137 29.0746ZM43.7628 30.1537C43.903 30.3506 44.0328 30.5548 44.1539 30.7658C44.2179 30.8791 44.3287 31.0968 44.3754 31.3099C44.3858 31.3598 44.3875 31.438 44.3875 31.4741C44.2681 31.5327 44.1747 31.5609 44.0985 31.5228C44.0034 31.476 43.9549 31.3659 43.9082 31.2428C43.7905 30.934 43.7525 30.5246 43.7628 30.1537Z" fill="#1D2939"/>
<rect x="36.6528" y="37.9546" width="79.0226" height="28.1734" rx="14.0867" fill="#1D2939"/>
<rect x="69.2727" y="47.6538" width="26.6472" height="3.69487" rx="1.84744" fill="#009E69"/>
<rect x="43.5444" y="53.1963" width="52.5097" height="3.69487" rx="1.84744" fill="white"/>
<ellipse cx="105.568" cy="52.2724" rx="4.59434" ry="4.61859" fill="#006D8F"/>
<rect x="3.6001" y="61.5093" width="79.0226" height="28.1734" rx="14.0867" fill="#006D8F"/>
<rect x="23.3555" y="71.2085" width="26.6472" height="3.69487" rx="1.84744" fill="#1D2939"/>
<rect x="23.3555" y="76.751" width="52.5097" height="3.69487" rx="1.84744" fill="white"/>
<ellipse cx="15.0858" cy="75.8271" rx="4.59434" ry="4.61859" fill="#009E69"/>
</svg>
