<svg fill="none" height="24" viewBox="0 0 24 24" width="24" xmlns="http://www.w3.org/2000/svg">
    <path
        d="M20.9997 12.1582C20.9997 11.4198 20.9384 10.881 20.8057 10.3223H12.1777V13.6548H17.2422C17.1401 14.483 16.5887 15.7303 15.3634 16.5683L15.3463 16.6799L18.0743 18.7451L18.2633 18.7635C19.9991 17.197 20.9997 14.8921 20.9997 12.1582Z"
        fill="#4285F4" />
    <path
        d="M12.1781 20.9384C14.6593 20.9384 16.7423 20.1401 18.2637 18.7632L15.3638 16.568C14.5879 17.0969 13.5463 17.466 12.1781 17.466C9.74802 17.466 7.68549 15.8996 6.95025 13.7344L6.84248 13.7433L4.00585 15.8886L3.96875 15.9893C5.47991 18.9228 8.58396 20.9384 12.1781 20.9384Z"
        fill="#34A853" />
    <path
        d="M6.94998 13.7337C6.75598 13.1749 6.64371 12.5762 6.64371 11.9576C6.64371 11.3389 6.75598 10.7403 6.93977 10.1815L6.93463 10.0625L4.06245 7.88281L3.96848 7.92649C3.34566 9.14381 2.98828 10.5108 2.98828 11.9576C2.98828 13.4044 3.34566 14.7713 3.96848 15.9886L6.94998 13.7337Z"
        fill="#FBBC05" />
    <path
        d="M12.1781 6.45079C13.9037 6.45079 15.0677 7.17916 15.7314 7.78786L18.3249 5.31333C16.7321 3.86655 14.6593 2.97852 12.1781 2.97852C8.58396 2.97852 5.47991 4.99403 3.96875 7.92749L6.94004 10.1825C7.68548 8.01733 9.74802 6.45079 12.1781 6.45079Z"
        fill="#EB4335" />
</svg>
