<svg width="24" height="24" viewBox="0 0 24 24" fill="none" xmlns="http://www.w3.org/2000/svg">
<path d="M13.7495 12.7115C13.0508 12.7115 12.4595 12.4695 11.9755 11.9855C11.4915 11.5015 11.2495 10.9101 11.2495 10.2115C11.2495 9.51281 11.4915 8.92148 11.9755 8.43748C12.4595 7.95348 13.0508 7.71148 13.7495 7.71148C14.4481 7.71148 15.0395 7.95348 15.5235 8.43748C16.0075 8.92148 16.2495 9.51281 16.2495 10.2115C16.2495 10.9101 16.0075 11.5015 15.5235 11.9855C15.0395 12.4695 14.4481 12.7115 13.7495 12.7115ZM7.1532 15.8077C6.6562 15.8077 6.2307 15.6307 5.8767 15.2767C5.5227 14.9227 5.3457 14.4971 5.3457 14V6.42298C5.3457 5.92598 5.5227 5.50048 5.8767 5.14648C6.2307 4.79248 6.6562 4.61548 7.1532 4.61548H20.3455C20.8426 4.61548 21.2682 4.79248 21.6222 5.14648C21.9762 5.50048 22.1532 5.92598 22.1532 6.42298V14C22.1532 14.4971 21.9762 14.9227 21.6222 15.2767C21.2682 15.6307 20.8426 15.8077 20.3455 15.8077H7.1532ZM8.6532 14.3077H18.8457C18.8457 13.8091 19.0227 13.3831 19.3767 13.0297C19.7307 12.6766 20.1562 12.5 20.6532 12.5V7.92298C20.1545 7.92298 19.7286 7.74598 19.3755 7.39198C19.0223 7.03798 18.8457 6.61248 18.8457 6.11548H8.6532C8.6532 6.61415 8.4762 7.04006 8.1222 7.39323C7.7682 7.74639 7.3427 7.92298 6.8457 7.92298V12.5C7.34437 12.5 7.77029 12.677 8.12345 13.031C8.47662 13.385 8.6532 13.8106 8.6532 14.3077ZM19.1725 19.3077H3.65345C3.15629 19.3077 2.7307 19.1307 2.3767 18.7767C2.0227 18.4227 1.8457 17.9971 1.8457 17.5V7.59623H3.3457V17.5C3.3457 17.5768 3.3777 17.6473 3.4417 17.7115C3.50587 17.7756 3.57645 17.8077 3.65345 17.8077H19.1725V19.3077ZM7.1532 14.3077H6.8457V6.11548H7.1532C7.06987 6.11548 6.99779 6.1459 6.93695 6.20673C6.87612 6.26756 6.8457 6.33964 6.8457 6.42298V14C6.8457 14.0833 6.87612 14.1554 6.93695 14.2162C6.99779 14.2772 7.06987 14.3077 7.1532 14.3077Z" fill="#5F6368"/>
</svg>
