<svg width="24" height="24" viewBox="0 0 24 24" fill="none" xmlns="http://www.w3.org/2000/svg">
<path d="M22 5.8725L16.1163 2L12 5.46375L17.9325 9.155L22 5.8725ZM7.88375 2L2 5.87125L6.06875 9.155L12 5.46375L7.88375 2ZM12 12.8475L7.88375 16.3112L2 12.4387L6.0675 9.155L12 12.8475L17.9312 9.155L22 12.4387L16.1163 16.3112L12 12.8475Z" fill="#1E88E5"/>
<path d="M16.4137 17.6117C16.3017 17.6863 16.1683 17.7224 16.0339 17.7145C15.8995 17.7066 15.7713 17.6552 15.6688 17.568L12 14.4805L8.33125 17.568C8.22801 17.6543 8.09973 17.7052 7.96535 17.7131C7.83098 17.721 7.69763 17.6854 7.585 17.6117L5.75 16.4042V18.2505L12.0125 22.0005L18.25 18.2505V16.403L16.4137 17.6117Z" fill="#1E88E5"/>
</svg>
