<svg fill="none" height="24" viewBox="0 0 25 24" width="25" xmlns="http://www.w3.org/2000/svg">
    <path
        d="M12.6302 19.5568C17.0168 19.5568 20.5729 15.8796 20.5729 11.3436C20.5729 6.8076 17.0168 3.13043 12.6302 3.13043C8.24357 3.13043 4.6875 6.8076 4.6875 11.3436C4.6875 15.8796 8.24357 19.5568 12.6302 19.5568Z"
        fill="url(#paint0_linear_57438_17321)" />
    <path
        d="M24.3445 16.8849C23.563 18.2335 22.0912 19.4859 20.515 19.6945C19.4642 19.8335 14.6899 19.8322 6.19207 19.6905C4.13546 19.6905 2.31086 18.5783 1.17188 16.9902L14.7136 10.8954L24.3445 16.8849Z"
        fill="url(#paint1_linear_57438_17321)" />
    <path
        d="M14.7129 10.8934L17.8178 9.52452C18.4583 9.22301 19.17 9.05505 19.9196 9.05505C22.7242 9.05505 24.9977 11.406 24.9977 14.3061C24.9977 15.2438 24.76 16.1242 24.3435 16.8862L14.7129 10.8934Z"
        fill="url(#paint2_linear_57438_17321)" />
    <path
        d="M1.17184 16.9923C0.434633 15.9308 0 14.5014 0 13.0946C0 9.52528 2.79822 6.63177 6.25 6.63177C7.61052 6.63177 8.8695 7.08129 9.89563 7.84453L9.89583 7.84356L14.7135 10.897L1.17184 16.9923Z"
        fill="url(#paint3_linear_57438_17321)" />
    <defs>
        <linearGradient gradientUnits="userSpaceOnUse" id="paint0_linear_57438_17321" x1="1651.18" x2="12.6366"
            y1="1645.77" y2="58.0091">
            <stop stop-color="#0D58BF" />
            <stop offset="1" stop-color="#0A3070" />
        </linearGradient>
        <linearGradient gradientUnits="userSpaceOnUse" id="paint1_linear_57438_17321" x1="1.17187" x2="2052.87"
            y1="534.285" y2="1509.69">
            <stop stop-color="#007FC0" />
            <stop offset="1" stop-color="#00E6FF" />
        </linearGradient>
        <linearGradient gradientUnits="userSpaceOnUse" id="paint2_linear_57438_17321" x1="65.8593" x2="804.634"
            y1="60.4115" y2="977.962">
            <stop stop-color="#0094F2" />
            <stop offset="1" stop-color="#00C8FF" />
        </linearGradient>
        <linearGradient gradientUnits="userSpaceOnUse" id="paint3_linear_57438_17321" x1="100.023" x2="1065.84"
            y1="172.462" y2="891.873">
            <stop stop-color="#004FA7" />
            <stop offset="1" stop-color="#006DD9" />
        </linearGradient>
    </defs>
</svg>
