<svg width="20" height="20" viewBox="0 0 20 20" fill="none" xmlns="http://www.w3.org/2000/svg">
<path d="M6.38625 9.01439C5.65819 9.01439 5.03681 8.75703 4.52208 8.2423C4.00736 7.72772 3.75 7.10633 3.75 6.37814C3.75 5.65008 4.00736 5.02869 4.52208 4.51397C5.03681 3.99939 5.65819 3.7421 6.38625 3.7421C7.11431 3.7421 7.73569 3.99939 8.25042 4.51397C8.76514 5.02869 9.0225 5.65008 9.0225 6.37814C9.0225 7.10633 8.76514 7.72772 8.25042 8.2423C7.73569 8.75703 7.11431 9.01439 6.38625 9.01439ZM6.38583 7.76439C6.77069 7.76439 7.09799 7.62967 7.36771 7.36022C7.63757 7.09078 7.7725 6.76362 7.7725 6.37876C7.7725 5.99376 7.63778 5.6664 7.36833 5.39668C7.09889 5.12696 6.77167 4.9921 6.38667 4.9921C6.00181 4.9921 5.67444 5.12682 5.40458 5.39626C5.13486 5.66571 5 5.99286 5 6.37772C5 6.76272 5.13472 7.09008 5.40417 7.3598C5.67361 7.62953 6.00083 7.76439 6.38583 7.76439ZM13.6219 16.25C12.8937 16.25 12.2723 15.9927 11.7577 15.4779C11.243 14.9632 10.9856 14.3418 10.9856 13.6138C10.9856 12.8857 11.243 12.2643 11.7577 11.7496C12.2723 11.2349 12.8937 10.9775 13.6219 10.9775C14.3499 10.9775 14.9713 11.2349 15.486 11.7496C16.0006 12.2643 16.2579 12.8857 16.2579 13.6138C16.2579 14.3418 16.0006 14.9632 15.486 15.4779C14.9713 15.9927 14.3499 16.25 13.6219 16.25ZM13.6213 15C14.0063 15 14.3336 14.8653 14.6033 14.5958C14.8731 14.3264 15.0079 13.9992 15.0079 13.6142C15.0079 13.2293 14.8732 12.902 14.6038 12.6323C14.3343 12.3624 14.0072 12.2275 13.6223 12.2275C13.2373 12.2275 12.9099 12.3622 12.6402 12.6317C12.3705 12.9011 12.2356 13.2283 12.2356 13.6133C12.2356 13.9982 12.3703 14.3256 12.6398 14.5954C12.9092 14.8652 13.2364 15 13.6213 15ZM4.70042 16.1698L3.83021 15.2996L15.3077 3.8221L16.1779 4.6923L4.70042 16.1698Z" fill="#5F6368"/>
</svg>
