<svg fill="none" height="16" viewBox="0 0 16 16" width="16" xmlns="http://www.w3.org/2000/svg">
    <path
        d="M4.03015 12.6667H11.9545L10.3302 11.0423C10.0079 11.2928 9.6496 11.4872 9.25515 11.6257C8.86071 11.7641 8.44254 11.8333 8.00065 11.8333C7.55876 11.8333 7.1406 11.7624 6.74615 11.6205C6.35171 11.4786 5.99337 11.2825 5.67115 11.032L4.03015 12.6667ZM3.33398 11.9538L4.95832 10.3295C4.70787 10.0073 4.51343 9.64895 4.37498 9.25451C4.23654 8.86007 4.16732 8.4419 4.16732 8.00001C4.16732 7.55812 4.23826 7.13995 4.38015 6.74551C4.52204 6.35107 4.71821 5.99273 4.96865 5.67051L3.33398 4.02951V11.9538ZM5.68148 9.60651L7.29815 8.00001L5.68148 6.39351C5.51648 6.62351 5.38954 6.87207 5.30065 7.13918C5.21176 7.40618 5.16732 7.69312 5.16732 8.00001C5.16732 8.3069 5.21176 8.59384 5.30065 8.86084C5.38954 9.12795 5.51648 9.37651 5.68148 9.60651ZM8.00065 10.8333C8.30754 10.8333 8.59449 10.7889 8.86149 10.7C9.1286 10.6111 9.37715 10.4842 9.60715 10.3192L8.00065 8.69618L6.37748 10.3192C6.60748 10.4842 6.85882 10.6111 7.13148 10.7C7.40404 10.7889 7.69376 10.8333 8.00065 10.8333ZM8.00065 7.28718L9.60715 5.68084C9.37715 5.51584 9.1286 5.3889 8.86149 5.30001C8.59449 5.21112 8.30754 5.16668 8.00065 5.16668C7.69376 5.16668 7.40682 5.21112 7.13982 5.30001C6.87271 5.3889 6.62415 5.51584 6.39415 5.68084L8.00065 7.28718ZM10.3198 9.60651C10.4848 9.37651 10.6118 9.12795 10.7007 8.86084C10.7895 8.59384 10.834 8.3069 10.834 8.00001C10.834 7.69312 10.7895 7.4034 10.7007 7.13084C10.6118 6.85818 10.4848 6.60684 10.3198 6.37684L8.71349 7.98334L10.3198 9.60651ZM12.6673 11.9538V4.02951L11.0327 5.67051C11.2831 5.99273 11.4793 6.35107 11.6212 6.74551C11.763 7.13995 11.834 7.55812 11.834 8.00001C11.834 8.4419 11.7648 8.86007 11.6263 9.25451C11.4879 9.64895 11.2934 10.0073 11.043 10.3295L12.6673 11.9538ZM10.3302 4.96801L11.9712 3.33334H4.04682L5.67115 4.95768C5.99337 4.70723 6.35171 4.51279 6.74615 4.37434C7.1406 4.2359 7.55876 4.16668 8.00065 4.16668C8.44254 4.16668 8.86071 4.23762 9.25515 4.37951C9.6496 4.5214 10.0079 4.71757 10.3302 4.96801ZM3.53915 13.6667C3.20237 13.6667 2.91732 13.55 2.68398 13.3167C2.45065 13.0833 2.33398 12.7983 2.33398 12.4615V3.53851C2.33398 3.20173 2.45065 2.91668 2.68398 2.68334C2.91732 2.45001 3.20237 2.33334 3.53915 2.33334H12.4622C12.7989 2.33334 13.084 2.45001 13.3173 2.68334C13.5507 2.91668 13.6673 3.20173 13.6673 3.53851V12.4615C13.6673 12.794 13.5507 13.078 13.3173 13.3135C13.084 13.549 12.7989 13.6667 12.4622 13.6667H3.53915Z"
        fill="#5F6368" />
</svg>
