<svg fill="none" height="24" viewBox="0 0 24 24" width="24" xmlns="http://www.w3.org/2000/svg">
    <path
        d="M13.827 21.5V18.8577L19.2557 13.4537C19.3801 13.3359 19.5143 13.2501 19.6585 13.1962C19.8027 13.1424 19.9468 13.1155 20.091 13.1155C20.2483 13.1155 20.4004 13.1449 20.5473 13.2037C20.6943 13.2627 20.8278 13.3512 20.948 13.4692L21.873 14.4038C21.9807 14.5282 22.064 14.6629 22.123 14.8077C22.182 14.9526 22.2115 15.0974 22.2115 15.2423C22.2115 15.3871 22.1846 15.5345 22.1308 15.6845C22.0769 15.8345 21.991 15.9717 21.873 16.096L16.4693 21.5H13.827ZM15.0193 20.3078H15.9693L19.2153 17.046L18.7653 16.5613L18.2902 16.102L15.0193 19.3577V20.3078ZM6.30775 21.5C5.80258 21.5 5.375 21.325 5.025 20.975C4.675 20.625 4.5 20.1974 4.5 19.6923V4.30775C4.5 3.80258 4.675 3.375 5.025 3.025C5.375 2.675 5.80258 2.5 6.30775 2.5H14.25L19.5 7.75V10.548H18V8.5H13.5V4H6.30775C6.23075 4 6.16025 4.03208 6.09625 4.09625C6.03208 4.16025 6 4.23075 6 4.30775V19.6923C6 19.7693 6.03208 19.8398 6.09625 19.9038C6.16025 19.9679 6.23075 20 6.30775 20H11.6345V21.5H6.30775ZM18.7653 16.5613L18.2902 16.102L19.2153 17.046L18.7653 16.5613Z"
        fill="#5F6368" />
</svg>
