<svg fill="none" height="32" viewBox="0 0 32 32" width="32" xmlns="http://www.w3.org/2000/svg">
    <path
        d="M12.1676 3.32225C11.7481 2.90329 11.1795 2.66797 10.5866 2.66797C9.99373 2.66797 9.42511 2.90329 9.00562 3.32225L3.25 9.06445C2.83252 9.48507 2.59686 10.0528 2.59375 10.6454C2.59427 11.2386 2.83032 11.8072 3.25 12.2264L19.6846 28.6774C20.1065 29.0977 20.6776 29.3336 21.2731 29.3336C21.8685 29.3336 22.4396 29.0977 22.8615 28.6774L28.6037 22.9203C28.8127 22.7135 28.9787 22.4673 29.092 22.1959C29.2052 21.9245 29.2636 21.6334 29.2636 21.3393C29.2636 21.0453 29.2052 20.7541 29.092 20.4828C28.9787 20.2114 28.8127 19.9652 28.6037 19.7584L12.1676 3.32225ZM10.4971 8.66175C10.4272 8.73108 10.3717 8.81356 10.3339 8.90443C10.296 8.99531 10.2765 9.09278 10.2765 9.19123C10.2765 9.28967 10.296 9.38715 10.3339 9.47802C10.3717 9.5689 10.4272 9.65138 10.4971 9.7207C10.6414 9.85361 10.8304 9.92739 11.0266 9.92739C11.2228 9.92739 11.4118 9.85361 11.5561 9.7207C12.3764 8.88547 13.1818 8.08007 14.017 7.27467L15.8814 9.13903L14.539 10.4814C14.4683 10.5486 14.4119 10.6296 14.3734 10.7194C14.3349 10.8091 14.3151 10.9057 14.3151 11.0034C14.3151 11.101 14.3349 11.1976 14.3734 11.2874C14.4119 11.3771 14.4683 11.4581 14.539 11.5254C14.6083 11.5953 14.6908 11.6508 14.7817 11.6886C14.8726 11.7265 14.97 11.746 15.0685 11.746C15.1669 11.746 15.2644 11.7265 15.3553 11.6886C15.4462 11.6508 15.5286 11.5953 15.598 11.5254C16.0305 11.0779 16.4929 10.6305 16.9403 10.198L18.8047 12.0623L16.3586 14.5233C16.2225 14.6622 16.1467 14.8492 16.1476 15.0437C16.1486 15.2383 16.2263 15.4245 16.3639 15.5621C16.5014 15.6996 16.6877 15.7773 16.8822 15.7783C17.0767 15.7793 17.2637 15.7035 17.4027 15.5673C18.2379 14.747 19.0433 13.9416 19.8636 13.1213L21.728 14.9856L20.3856 16.328C20.2502 16.4738 20.1755 16.6659 20.1768 16.8649C20.1756 17.0595 20.2506 17.2468 20.3856 17.3869C20.5281 17.5235 20.7178 17.5997 20.9151 17.5997C21.1124 17.5997 21.3021 17.5235 21.4446 17.3869L22.7869 16.0446L24.6662 17.9238L22.2052 20.3699C22.1357 20.4394 22.0805 20.5219 22.0429 20.6128C22.0053 20.7036 21.9859 20.801 21.9859 20.8993C21.9859 20.9977 22.0053 21.095 22.0429 21.1859C22.0805 21.2767 22.1357 21.3593 22.2052 21.4288C22.2748 21.4984 22.3573 21.5535 22.4482 21.5911C22.539 21.6288 22.6364 21.6481 22.7347 21.6481C22.833 21.6481 22.9304 21.6288 23.0213 21.5911C23.1121 21.5535 23.1946 21.4984 23.2642 21.4288C24.0845 20.5936 24.8899 19.7882 25.7251 18.9828L27.5596 20.8173C27.6963 20.9567 27.7728 21.1441 27.7728 21.3393C27.7728 21.5345 27.6963 21.722 27.5596 21.8614L21.8025 27.6185C21.7332 27.6884 21.6507 27.7438 21.5598 27.7817C21.469 27.8196 21.3715 27.8391 21.2731 27.8391C21.1746 27.8391 21.0771 27.8196 20.9863 27.7817C20.8954 27.7438 20.8129 27.6884 20.7436 27.6185L4.30746 11.1824C4.23547 11.1129 4.17848 11.0294 4.14 10.9371C4.10153 10.8447 4.08238 10.7455 4.08374 10.6454C4.08388 10.5478 4.10378 10.4513 4.14223 10.3615C4.18067 10.2718 4.23688 10.1908 4.30746 10.1234L10.0646 4.36629C10.2054 4.23241 10.3923 4.15776 10.5866 4.15776C10.7809 4.15776 10.9678 4.23241 11.1086 4.36629L12.958 6.21572L10.4971 8.66175Z"
        fill="#015B7C" />
</svg>
