<svg width="103" height="91" viewBox="0 0 103 91" fill="none" xmlns="http://www.w3.org/2000/svg">
<path fill-rule="evenodd" clip-rule="evenodd" d="M51.5 55.041C51.5 55.041 63.5917 66.6762 72.2232 73.0205C83.4417 81.2662 103 90.9999 103 90.9999C103 90.9999 87.969 87.7136 69.9809 76.0908C62.511 71.2642 51.5 61.1817 51.5 61.1817C51.5 61.1817 40.4911 71.2674 33.0191 76.0908C16.9655 86.4539 0 90.9999 0 90.9999C0 90.9999 19.5583 81.2662 30.7768 73.0205C39.4083 66.6762 51.5 55.041 51.5 55.041Z" fill="white"/>
<mask id="mask0_58928_5049" style="mask-type:alpha" maskUnits="userSpaceOnUse" x="8" y="0" width="91" height="89">
<path d="M8.36597 86.2538C20.3174 81.4619 41.6309 63.8917 50.7937 55.7056H51.9888C65.3745 70.0812 88.2416 83.2589 98.002 88.0508V0H8.36597V86.2538Z" fill="#D9D9D9"/>
</mask>
<g mask="url(#mask0_58928_5049)">
<path fill-rule="evenodd" clip-rule="evenodd" d="M15.0549 51.9791C15.0549 43.6307 21.8067 36.863 30.1353 36.863H74.1199C82.4485 36.863 89.2003 43.6307 89.2003 51.9791V108.034L84.1735 104.885V51.9791C84.1735 46.4135 79.6723 41.9017 74.1199 41.9017H30.1353C24.5829 41.9017 20.0817 46.4135 20.0817 51.9791V104.255L15.0549 108.034V51.9791Z" fill="white"/>
<rect x="25.1062" y="46.9414" width="54.0381" height="17.6354" rx="8.81768" fill="white"/>
<rect x="25.1062" y="68.353" width="15.0804" height="15.116" rx="4" fill="white"/>
<rect x="43.9578" y="68.353" width="16.3371" height="15.116" rx="4" fill="white"/>
<rect x="64" y="68" width="15.0804" height="15.116" rx="4" fill="#00AEE0"/>
<path d="M36.4675 87.248C38.3555 87.2481 39.9532 88.5611 40.364 90.3486C36.3717 93.7574 31.8442 97.4088 27.7361 100.207C26.2434 99.6556 25.1122 98.2311 25.1121 96.4512V91.248C25.1121 89.0389 26.9029 87.248 29.1121 87.248H36.4675Z" fill="white"/>
<path d="M66.7644 87.248C64.8937 87.2481 63.3081 88.5373 62.8796 90.2998C66.7978 93.6694 71.2275 97.3249 75.2634 100.285C76.8696 99.8011 78.1197 98.3224 78.1199 96.4512V91.248C78.1199 89.0389 76.329 87.248 74.1199 87.248H66.7644Z" fill="white"/>
</g>
</svg>
