<svg width="103" height="91" viewBox="0 0 103 91" fill="none" xmlns="http://www.w3.org/2000/svg">
<path fill-rule="evenodd" clip-rule="evenodd" d="M51.5 55.041C51.5 55.041 63.5917 66.6762 72.2232 73.0205C83.4417 81.2662 103 90.9999 103 90.9999C103 90.9999 87.969 87.7136 69.9809 76.0908C62.511 71.2642 51.5 61.1817 51.5 61.1817C51.5 61.1817 40.4911 71.2674 33.0191 76.0908C16.9655 86.4539 0 90.9999 0 90.9999C0 90.9999 19.5583 81.2662 30.7768 73.0205C39.4083 66.6762 51.5 55.041 51.5 55.041Z" fill="white"/>
<mask id="mask0_58928_5066" style="mask-type:alpha" maskUnits="userSpaceOnUse" x="8" y="0" width="91" height="89">
<path d="M8.36597 86.2538C20.3174 81.4619 41.6309 63.8917 50.7937 55.7056H51.9888C65.3745 70.0812 88.2416 83.2589 98.002 88.0508V0H8.36597V86.2538Z" fill="#D9D9D9"/>
</mask>
<g mask="url(#mask0_58928_5066)">
<path fill-rule="evenodd" clip-rule="evenodd" d="M15.0549 21.9791C15.0549 13.6307 21.8067 6.86304 30.1353 6.86304H74.1199C82.4485 6.86304 89.2003 13.6307 89.2003 21.9791V78.0343L84.1735 74.8852V21.9791C84.1735 16.4135 79.6723 11.9017 74.1199 11.9017H30.1353C24.5829 11.9017 20.0817 16.4135 20.0817 21.9791V74.2553L15.0549 78.0343V21.9791Z" fill="white"/>
<rect x="25.1062" y="16.9414" width="54.0381" height="17.6354" rx="8.81768" fill="white"/>
<rect x="25.1062" y="38.353" width="15.0804" height="15.116" rx="4" fill="white"/>
<rect x="43.9578" y="38.353" width="16.3371" height="15.116" rx="4" fill="white"/>
<rect x="64" y="38" width="15.0804" height="15.116" rx="4" fill="#00AEE0"/>
<path d="M36.4675 57.248C38.3555 57.2481 39.9532 58.5611 40.364 60.3486C36.3717 63.7574 31.8442 67.4088 27.7361 70.207C26.2434 69.6556 25.1122 68.2311 25.1121 66.4512V61.248C25.1121 59.0389 26.9029 57.248 29.1121 57.248H36.4675Z" fill="white"/>
<path d="M66.7644 57.248C64.8937 57.2481 63.3081 58.5373 62.8796 60.2998C66.7978 63.6694 71.2275 67.3249 75.2634 70.2852C76.8696 69.8011 78.1197 68.3224 78.1199 66.4512V61.248C78.1199 59.0389 76.329 57.248 74.1199 57.248H66.7644Z" fill="white"/>
</g>
</svg>
