<svg width="103" height="91" viewBox="0 0 103 91" fill="none" xmlns="http://www.w3.org/2000/svg">
<path fill-rule="evenodd" clip-rule="evenodd" d="M51.5 55.041C51.5 55.041 63.5917 66.6762 72.2232 73.0205C83.4417 81.2662 103 90.9999 103 90.9999C103 90.9999 87.969 87.7136 69.9809 76.0908C62.511 71.2642 51.5 61.1817 51.5 61.1817C51.5 61.1817 40.4911 71.2674 33.0191 76.0908C16.9655 86.4539 0 90.9999 0 90.9999C0 90.9999 19.5583 81.2662 30.7768 73.0205C39.4083 66.6762 51.5 55.041 51.5 55.041Z" fill="white"/>
<mask id="mask0_58928_5047" style="mask-type:alpha" maskUnits="userSpaceOnUse" x="8" y="0" width="91" height="89">
<path d="M8.36597 86.2538C20.3174 81.4619 41.6309 63.8917 50.7937 55.7056H51.9888C65.3745 70.0812 88.2416 83.2589 98.002 88.0508V0H8.36597V86.2538Z" fill="#D9D9D9"/>
</mask>
<g mask="url(#mask0_58928_5047)">
<path fill-rule="evenodd" clip-rule="evenodd" d="M15.0549 91.9791C15.0549 83.6307 21.8067 76.863 30.1353 76.863H74.1199C82.4485 76.863 89.2003 83.6307 89.2003 91.9791V148.034L84.1735 144.885V91.9791C84.1735 86.4135 79.6723 81.9017 74.1199 81.9017H30.1353C24.5829 81.9017 20.0817 86.4135 20.0817 91.9791V144.255L15.0549 148.034V91.9791Z" fill="white"/>
<rect x="25.1062" y="86.9414" width="54.0381" height="17.6354" rx="8.81768" fill="white"/>
</g>
</svg>
