<svg fill="none" height="32" viewBox="0 0 32 32" width="32" xmlns="http://www.w3.org/2000/svg">
    <path
        d="M17.6973 10.9404C17.854 10.9404 17.9847 11.0281 18.0439 11.2061L18.0654 11.2881C18.283 12.965 18.5066 14.3031 18.8271 15.374C19.1493 16.4505 19.5732 17.2735 20.2002 17.9062C21.4476 19.165 23.438 19.6062 26.7451 19.9727H26.7461C26.9851 20.0069 27.1084 20.162 27.1084 20.3389C27.1083 20.5226 26.979 20.68 26.7549 20.7041H26.7539C23.4416 21.0708 21.4487 21.5116 20.2002 22.7715C19.5733 23.4042 19.1493 24.2272 18.8271 25.3037C18.5067 26.3747 18.283 27.7127 18.0654 29.3896C18.0209 29.6297 17.8701 29.75 17.6973 29.75C17.5246 29.75 17.3789 29.631 17.3438 29.4014C17.1134 27.7214 16.8813 26.3887 16.5557 25.3262C16.229 24.2606 15.8032 23.4498 15.1777 22.8252C14.5522 22.2006 13.7453 21.7806 12.6885 21.4619C11.6347 21.1441 10.3167 20.9222 8.6582 20.7041H8.65137C8.41274 20.6794 8.2862 20.5198 8.28613 20.3389C8.28613 20.165 8.40613 20.008 8.6582 19.9727C11.9615 19.6061 13.9528 19.1653 15.2021 17.9062C15.8299 17.2736 16.255 16.4506 16.5781 15.374C16.9002 14.3012 17.1249 12.9604 17.3428 11.2793C17.376 11.0548 17.5173 10.9405 17.6973 10.9404ZM9.375 7.2334C9.47059 7.23357 9.53129 7.28674 9.54297 7.39062L9.54395 7.39551C9.65088 8.22658 9.74072 8.876 9.87012 9.38086C10.0003 9.88855 10.1772 10.2794 10.4766 10.5762C10.7755 10.8724 11.1708 11.0495 11.6846 11.1826C12.1947 11.3147 12.8514 11.4097 13.6914 11.5254V11.5264C13.8134 11.5468 13.8631 11.6187 13.8633 11.6963C13.8633 11.752 13.8459 11.785 13.8252 11.8066C13.8019 11.831 13.7592 11.8558 13.6914 11.8672L13.6855 11.8682C12.8437 12.0298 12.1871 12.1541 11.6797 12.3008C11.1706 12.4479 10.7797 12.6268 10.4834 12.9141C10.1849 13.2036 10.0073 13.5799 9.87598 14.0732C9.74575 14.5624 9.65391 15.1933 9.54395 16.0088L9.54297 16.0146C9.53673 16.0709 9.51629 16.1041 9.49512 16.123C9.47414 16.1418 9.43733 16.1601 9.375 16.1602C9.32255 16.1602 9.29094 16.1444 9.27148 16.126C9.25111 16.1065 9.22521 16.067 9.21777 15.9932V15.9873L9.14355 15.4082C9.07061 14.8618 8.99807 14.4109 8.90234 14.0391C8.77374 13.5397 8.59735 13.1553 8.2998 12.8613C8.00358 12.5687 7.61208 12.3902 7.10449 12.25C6.59898 12.1104 5.94886 12.0016 5.11816 11.8672L5.1123 11.8662L5.04297 11.8535C4.98332 11.8382 4.94976 11.8178 4.93262 11.8018C4.91628 11.7864 4.89844 11.76 4.89844 11.6963C4.89853 11.6512 4.91321 11.6211 4.93652 11.5967C4.96268 11.5693 5.00907 11.5407 5.08008 11.5244C5.91292 11.3694 6.56651 11.2501 7.07422 11.1084C7.58441 10.966 7.97975 10.7922 8.28027 10.5078C8.58378 10.2206 8.76547 9.84471 8.89746 9.34961C9.02823 8.85894 9.11687 8.22572 9.21777 7.40625V7.40234C9.23093 7.27744 9.30012 7.2334 9.375 7.2334ZM15.3184 2.24902L15.332 2.28613C15.4365 2.77885 15.5158 3.17105 15.6064 3.47656C15.6989 3.7881 15.8113 4.04185 16.0029 4.24316C16.1955 4.44541 16.445 4.57196 16.7637 4.6748C17.0792 4.77659 17.4884 4.8621 18.0156 4.96875V4.96973L18.0244 4.9707C18.0348 4.97243 18.0426 4.97386 18.0479 4.97559C18.048 4.97742 18.0488 4.97996 18.0488 4.98242C18.0488 4.98466 18.048 4.98658 18.0479 4.98828C18.0426 4.99 18.0348 4.99144 18.0244 4.99316L18.0186 4.99414C17.4885 5.09469 17.0747 5.17593 16.7549 5.27441C16.4321 5.37381 16.1774 5.49839 15.9814 5.70117C15.7858 5.90358 15.6724 6.16033 15.583 6.47656C15.4956 6.78566 15.4243 7.1815 15.332 7.67871C15.3274 7.69563 15.3219 7.70655 15.3184 7.71387L15.3154 7.71484C15.314 7.71484 15.3127 7.71391 15.3115 7.71387C15.3085 7.7074 15.3047 7.69789 15.3008 7.68457C15.208 7.18456 15.1366 6.78811 15.0488 6.47949C14.9593 6.16489 14.8452 5.91072 14.6494 5.70996C14.4536 5.50932 14.1995 5.38541 13.8779 5.28516C13.5589 5.18571 13.145 5.1017 12.6152 4.99512L12.6104 4.99414L12.583 4.98438V4.97852C12.5878 4.97615 12.597 4.97233 12.6113 4.96973H12.6152C13.1458 4.86302 13.5568 4.77664 13.873 4.6748C14.1924 4.57195 14.4418 4.44486 14.6338 4.24219C14.8246 4.04056 14.936 3.78677 15.0273 3.47559C15.1172 3.16928 15.1949 2.77521 15.2998 2.28027C15.304 2.26576 15.3083 2.25565 15.3115 2.24902H15.3184Z"
        stroke="#6155F5" stroke-width="0.5" />
</svg>
